/* XPM */
static char * tbarufcs_xpm[] = {
"19 19 63 1",
" 	c None",
".	c #4D4D4D",
"+	c #4C4D4D",
"@	c #4D4C4D",
"#	c #4C4C4D",
"$	c #4A494A",
"%	c #4A4A4A",
"&	c #494A4A",
"*	c #494949",
"=	c #4A4A49",
"-	c #494A49",
";	c #49494A",
">	c #464747",
",	c #464646",
"'	c #464647",
")	c #474646",
"!	c #474747",
"~	c #474647",
"{	c #434443",
"]	c #434343",
"^	c #434344",
"/	c #3F4040",
"(	c #403F40",
"_	c #404040",
":	c #40403F",
"<	c #403F3F",
"[	c #3D3D3D",
"}	c #3C3D3C",
"|	c #3D3C3D",
"1	c #3D3C3C",
"2	c #3C3D3D",
"3	c #3D3D3C",
"4	c #3C3C3C",
"5	c #3C3C3D",
"6	c #3A3A3A",
"7	c #393939",
"8	c #39393A",
"9	c #3A3939",
"0	c #393A39",
"a	c #3A393A",
"b	c #3A3A39",
"c	c #393A3A",
"d	c #363636",
"e	c #363637",
"f	c #363736",
"g	c #373636",
"h	c #373637",
"i	c #333333",
"j	c #333233",
"k	c #333332",
"l	c #323333",
"m	c #302F30",
"n	c #303030",
"o	c #2F3030",
"p	c #2F2F30",
"q	c #302F2F",
"r	c #2F302F",
"s	c #30302F",
"t	c #2F2F2F",
"u	c #444343",
"v	c #434444",
"w	c #464746",
"x	c #4A4949",
".+@...@#.....@+@..+",
"$%%&%$$*==%&=&*--;$",
">,')'))'>,>),,!,'!~",
"{]{]{]]]]]{]^]]]]]]",
"/(__:(_(__(_____<_/",
"[}|1[1[21|32[4|[5|3",
"678790089689a9b00c8",
"defddddeghdddfddddg",
"ijijkiiiiiiiiiiliil",
"mnonpqmporossomsmmo",
"rosrotsrossnnrmotnn",
"liiiiiikiiiiiijikii",
"ddddddeddddeeddgedd",
"8770a0007797b7a7788",
"}5[421}4}}3|34}}[|2",
"__(_/____/:___<</__",
"u{]]v]]]]{]]^]^]]]]",
",,'w,,~>'~,w!,)w>)'",
"x%$-$x;%$=&;*=;-%%$"};
