/* XPM */
static char * tbarfcs_xpm[] = {
"19 19 73 1",
" 	c None",
".	c #668199",
"+	c #668099",
"@	c #67819A",
"#	c #678099",
"$	c #678199",
"%	c #66809A",
"&	c #67829C",
"*	c #67829B",
"=	c #66819C",
"-	c #66829C",
";	c #66829B",
">	c #66819B",
",	c #67819B",
"'	c #67839D",
")	c #66839D",
"!	c #66839E",
"~	c #66829E",
"{	c #67839E",
"]	c #66829D",
"^	c #6684A0",
"/	c #66849F",
"(	c #6784A0",
"_	c #6683A0",
":	c #67839F",
"<	c #6685A2",
"[	c #6684A2",
"}	c #6685A1",
"|	c #6784A2",
"1	c #6785A2",
"2	c #6686A3",
"3	c #6786A4",
"4	c #6686A4",
"5	c #6687A6",
"6	c #6787A6",
"7	c #6688A9",
"8	c #6688A8",
"9	c #6788A8",
"0	c #6689A8",
"a	c #6689AA",
"b	c #6689AB",
"c	c #6789AA",
"d	c #668AAB",
"e	c #668AAC",
"f	c #668BAC",
"g	c #678AAD",
"h	c #668BAD",
"i	c #668AAD",
"j	c #668BAE",
"k	c #668AAE",
"l	c #6689AC",
"m	c #678AAC",
"n	c #6689A9",
"o	c #6788A9",
"p	c #6688AA",
"q	c #6789A9",
"r	c #6687A7",
"s	c #6688A7",
"t	c #6787A7",
"u	c #6687A8",
"v	c #6686A5",
"w	c #6687A5",
"x	c #6787A5",
"y	c #6685A3",
"z	c #6785A3",
"A	c #6786A2",
"B	c #6786A3",
"C	c #6684A1",
"D	c #6784A1",
"E	c #66849E",
"F	c #66839F",
"G	c #67829D",
"H	c #66839C",
".........+@#$$.+#+%",
"&*=--***;>=>*-->*&,",
"'')!~!))!~!{!)!)~!]",
"^////^^(^^^_^_/^:^_",
"<[}<<<[}<}|<<[}[<[1",
"2343434444344444444",
"5555555565555655555",
"7789990889888878887",
"aabaabcbaadaabaaaba",
"efghhieiefifehiiiei",
"hhjhkihjhikihkjkjih",
"bedldbmdelddlldddde",
"7nnno77a7pqn7np7nnn",
"rsrrsrtrsrssrrs8ruu",
"vvvwxwvwvxvwwvvwvwv",
"2yyzy<yyAByyy2yzy2y",
"CDC^}^CC}CC}^CCCDCD",
"!:{/:!E{F!:!{F!!F!E",
"G-H-)]]H)-]H]-&]]]G"};
